<?xml version="1.0" encoding="UTF-8"?>
<svg id="Layer_1" data-name="Layer 1" xmlns="http://www.w3.org/2000/svg" viewBox="0 0 6881.81 1080">
  <defs>
    <style>
      .cls-1 {
        fill: #fff;
      }
    </style>
  </defs>
  <rect x="1080" width="5801.81" height="1080" transform="translate(7961.81 1080) rotate(180)"/>
  <polygon points="636.5 810.06 716.06 810.06 579.79 946.35 540.01 986.13 363.94 810.06 443.5 810.06 511.88 878.44 511.88 688.15 363.52 539.81 511.88 391.45 511.88 201.14 443.1 269.94 363.54 269.94 499.81 133.65 511.88 121.58 539.59 93.87 715.66 269.94 636.1 269.94 568.14 201.97 568.14 391.45 716.48 539.81 568.14 688.15 568.14 878.44 636.5 810.06"/>
  <g>
    <path class="cls-1" d="M1173.87,816.68l220.7-553.74h97.3l221.5,553.74h-97.3l-54.58-136.06h-236.53l-53.79,136.06h-97.3ZM1355.81,599.14h174.82l-87.02-221.5-87.81,221.5Z"/>
    <path class="cls-1" d="M1785.35,816.68V262.94h94.93l294.27,400.27v-400.27h91.76v553.74h-91.76l-297.44-405.02v405.02h-91.76Z"/>
    <path class="cls-1" d="M2397.62,816.68V262.94h91.76v553.74h-91.76Z"/>
    <path class="cls-1" d="M2620.69,816.68V262.94h98.09l174.03,256.3,172.45-256.3h98.88v553.74h-91.76v-408.98l-180.36,266.59-179.57-265v407.39h-91.76Z"/>
    <path class="cls-1" d="M3236.92,816.68l220.7-553.74h97.3l221.5,553.74h-97.3l-54.58-136.06h-236.53l-53.79,136.06h-97.3ZM3418.87,599.14h174.82l-87.02-221.5-87.81,221.5Z"/>
    <path class="cls-1" d="M4030.34,826.17c-29.01,0-55.51-3.44-79.5-10.28-24-6.85-45.09-16.34-63.28-28.48-18.19-12.13-33.22-25.71-45.09-40.74-11.87-15.03-20.17-30.72-24.92-47.07l90.18-27.69c6.85,19.52,20.3,36.66,40.34,51.42,20.04,14.77,44.82,22.42,74.36,22.94,34.27,0,61.43-7.12,81.48-21.36,20.04-14.24,30.06-32.95,30.06-56.16,0-21.09-8.44-38.37-25.31-51.81-16.88-13.45-39.55-23.86-68.03-31.25l-68.03-17.4c-25.85-6.85-49.18-16.87-70.01-30.06-20.84-13.18-37.18-29.79-49.05-49.84-11.87-20.04-17.8-43.77-17.8-71.2,0-51.68,16.87-91.89,50.63-120.64,33.74-28.74,82-43.11,144.76-43.11,35.33,0,66.31,5.41,92.95,16.22,26.62,10.82,48.65,25.59,66.05,44.3,17.4,18.73,30.32,39.95,38.76,63.68l-88.6,28.48c-7.91-21.09-21.63-38.49-41.14-52.21-19.52-13.71-43.78-20.57-72.78-20.57s-53.67,7.12-70.8,21.36c-17.14,14.24-25.71,34.02-25.71,59.33,0,20.57,6.72,36.52,20.17,47.86,13.45,11.35,31.77,19.91,54.98,25.71l68.03,16.61c49.56,12.14,88.07,32.96,115.49,62.49,27.42,29.54,41.13,62.23,41.13,98.09,0,31.64-7.65,59.6-22.94,83.85-15.3,24.26-37.85,43.25-67.64,56.96-29.8,13.71-66.05,20.57-108.77,20.57Z"/>
    <path class="cls-1" d="M4570.63,826.17c-53.27,0-100.6-12.26-141.99-36.78-41.41-24.52-73.84-58.27-97.3-101.26-23.47-42.98-35.2-92.42-35.2-148.32s11.73-105.33,35.2-148.32c23.46-42.98,55.77-76.73,96.91-101.26,41.13-24.52,88.33-36.78,141.6-36.78,35.86,0,69.61,6.46,101.26,19.38,31.64,12.93,59.72,30.73,84.25,53.4,24.52,22.68,43.37,49.05,56.56,79.11l-83.85,34.02c-9.49-20.04-22.28-37.84-38.37-53.4-16.09-15.55-34.41-27.55-54.98-35.99-20.57-8.43-42.2-12.66-64.87-12.66-34.81,0-65.79,8.7-92.95,26.1-27.17,17.4-48.53,41.27-64.08,71.59-15.56,30.33-23.34,65.26-23.34,104.81s7.77,74.63,23.34,105.21c15.55,30.59,37.18,54.58,64.87,71.99,27.69,17.4,59.19,26.11,94.53,26.11,23.2,0,44.95-4.61,65.26-13.84,20.3-9.22,38.49-22.01,54.58-38.37,16.08-16.34,28.87-35.33,38.37-56.96l83.85,34.02c-13.19,31.12-31.91,58.67-56.16,82.67-24.26,24-52.48,42.59-84.64,55.77-32.17,13.18-66.45,19.78-102.84,19.78Z"/>
    <path class="cls-1" d="M4902.86,816.68V262.94h195.39c37.97,0,71.45,7.39,100.46,22.15,29,14.77,51.68,35.2,68.03,61.31,16.34,26.1,24.52,56.3,24.52,90.58,0,36.39-10.02,68.43-30.06,96.11-20.05,27.69-46.41,48.13-79.11,61.31l131.32,222.29h-103.63l-118.66-204.88c-3.16.53-6.46.79-9.89.79h-86.62v204.09h-91.76ZM4994.63,527.95h107.58c17.92,0,33.88-3.96,47.86-11.87,13.97-7.91,25.31-18.71,34.01-32.43,8.7-13.71,13.05-29.27,13.05-46.67,0-26.36-9.49-47.98-28.48-64.87-18.99-16.87-43.51-25.31-73.57-25.31h-100.46v181.15Z"/>
    <path class="cls-1" d="M5652.78,826.17c-54.85,0-103.37-12.13-145.55-36.39-42.2-24.25-75.29-58.01-99.28-101.26-24-43.24-35.99-92.55-35.99-147.93s11.99-106.13,35.99-149.11c23.99-42.98,56.82-76.73,98.49-101.26,41.65-24.52,89.91-36.78,144.76-36.78s102.44,12.26,144.37,36.78c41.93,24.52,74.62,58.28,98.09,101.26,23.46,42.99,35.2,92.43,35.2,148.32s-11.74,105.48-35.2,148.72c-23.47,43.25-55.91,77.01-97.3,101.26-41.41,24.26-89.27,36.39-143.58,36.39ZM5652.78,742.32c35.86,0,67.5-8.7,94.93-26.1,27.42-17.4,48.91-41.26,64.47-71.59,15.55-30.32,23.34-64.99,23.34-104.02s-7.91-74.48-23.73-104.82c-15.82-30.32-37.58-54.19-65.26-71.59-27.69-17.4-59.72-26.11-96.11-26.11s-67.77,8.58-95.72,25.71c-27.96,17.14-49.84,41.01-65.66,71.59-15.82,30.59-23.73,65.4-23.73,104.42s8.03,74.5,24.13,104.82c16.08,30.33,38.23,54.19,66.45,71.59,28.21,17.4,60.52,26.1,96.9,26.1Z"/>
    <path class="cls-1" d="M6026.15,816.68V262.94h91.76v469.89h250.76v83.85h-342.53Z"/>
    <path class="cls-1" d="M6445.41,816.68V262.94h91.76v469.89h250.76v83.85h-342.53Z"/>
  </g>
</svg>